<svg width="640" height="400" viewBox="0 0 640 400" fill="none" xmlns="http://www.w3.org/2000/svg">
  <defs>
    <linearGradient id="bg" x1="0" y1="0" x2="1" y2="1">
      <stop offset="0%" stop-color="#e0f2fe" />
      <stop offset="100%" stop-color="#fde68a" />
    </linearGradient>
  </defs>
  <rect x="20" y="20" width="600" height="360" rx="28" fill="url(#bg)" />
  <g opacity="0.2" stroke="#0f172a" stroke-width="2">
    <path d="M120 140H520" />
    <path d="M120 260H520" />
  </g>
  <g fill="none" stroke="#0f172a" stroke-width="10" stroke-linecap="round" stroke-linejoin="round">
    <path d="M200 240H360" />
    <path d="M330 200L360 240L330 280" />
    <path d="M440 160C470 160 495 185 495 215C495 245 470 270 440 270H250C220 270 195 245 195 215C195 185 220 160 250 160" />
    <path d="M400 120V200" />
    <path d="M380 140L400 120L420 140" />
  </g>
  <circle cx="470" cy="120" r="16" fill="#38bdf8" opacity="0.6" />
</svg>
